<?xml version="1.0" encoding="UTF-8" standalone="no"?>
<svg
   viewBox="0 0 44.538336 40.283019"
   version="1.1"
   id="svg10"
   sodipodi:docname="cat_logo.svg"
   width="44.538338"
   height="40.28302"
   inkscape:version="1.1 (1:1.1+202105261517+ce6663b3b7)"
   xmlns:inkscape="http://www.inkscape.org/namespaces/inkscape"
   xmlns:sodipodi="http://sodipodi.sourceforge.net/DTD/sodipodi-0.dtd"
   xmlns="http://www.w3.org/2000/svg"
   xmlns:svg="http://www.w3.org/2000/svg">
  <defs
     id="defs14" />
  <sodipodi:namedview
     id="namedview12"
     pagecolor="#ffffff"
     bordercolor="#666666"
     borderopacity="1.0"
     inkscape:pageshadow="2"
     inkscape:pageopacity="0.0"
     inkscape:pagecheckerboard="0"
     showgrid="false"
     inkscape:zoom="7.3175691"
     inkscape:cx="63.272379"
     inkscape:cy="14.144041"
     inkscape:window-width="3440"
     inkscape:window-height="1355"
     inkscape:window-x="0"
     inkscape:window-y="0"
     inkscape:window-maximized="1"
     inkscape:current-layer="svg10" />
  <path
     fill="Black" stroke="GhostWhite"
     d="m 16.49435,12.169507 a 23.887,23.887 0 0 0 -3.439,1.798 c -3.5310004,-2.204 -10.6930004,-5.0169996 -12.57400043,-2.854 -1.83999997,2.115 1.99300003,9.427 4.79000003,12.519 -0.655,2.215 -0.616,4.511 0.439,7.002 l -3.657,1.547 c -0.688,0.291 -0.972,1.173 -0.613,2.021 0.36,0.849 1.19,1.26 1.878,0.968 l 4.259,-1.802 c 0.186,-0.079 0.691,0.493 1.14,0.818 l -4.066,3.395 c -0.608,0.533 -0.664,1.431 -0.057,2.124 0.607,0.693 1.55,0.756 2.158,0.223 0.205,-0.18 4.7700004,-4.186 4.9500004,-4.39 4,1.413 9.218,1.197 14.28,-0.945 5.062,-2.142 8.847,-5.742 10.619,-9.598 0.273,0.013 6.32,-0.483 6.594,-0.504 0.807,-0.065 1.41,-0.802 1.337,-1.72 -0.075,-0.918 -0.773,-1.535 -1.58,-1.47 l -5.24,0.616 c 0.08,-0.548 0.02,-1.31 0.206,-1.388 l 4.259,-1.802 c 0.688,-0.291 0.972,-1.173 0.613,-2.021 -0.36,-0.849 -1.19,-1.26 -1.878,-0.968 l -3.657,1.547 c -1.053,-2.491 -2.673,-4.117 -4.72,-5.19 -0.271,-4.1599996 -2.824,-11.93999959 -5.624,-12.09299959 -2.861,-0.155 -5.842,6.91299999 -6.72,10.98299959 -1.224,0.295 -2.472,0.666 -3.697,1.185 z m -1.679,15.851 a 2.697,2.697 0 1 1 -2.102,-4.967 2.697,2.697 0 0 1 2.102,4.967 z m 10.69,-7.452 a 2.697,2.697 0 1 1 4.967,-2.1 2.697,2.697 0 0 1 -4.967,2.1 z"
     id="path4" />
</svg>
