<svg xmlns="http://www.w3.org/2000/svg" xmlns:xlink="http://www.w3.org/1999/xlink" version="1.1" x="0px" y="0px" viewBox="0 0 100 125" enable-background="new 0 0 100 100" xml:space="preserve"><g><path d="M50,34.333c-2.46,0-4.851,0.206-7.149,0.583C38.426,28.621,28.26,18.673,23.5,21c-4.656,2.276-3.398,17.485-0.863,24.764   C19.926,49.065,18.337,53,18.339,58H11c-1.381,0-2.5,1.297-2.5,3s1.119,3,2.5,3h8.548c0.373,0,0.822,1.338,1.353,2.215l-9.368,2.85   c-1.42,0.471-2.163,1.958-1.628,3.575c0.535,1.617,2.093,2.402,3.513,1.934c0.48-0.16,11.135-3.691,11.589-3.908   c5.794,5.287,14.832,8.678,24.993,8.678s19.198-3.402,24.992-8.689c0.455,0.217,11.109,3.73,11.59,3.891   c1.42,0.469,2.979-0.349,3.514-1.966c0.534-1.617-0.209-3.169-1.629-3.64L79.1,66.215C79.631,65.338,80.08,64,80.452,64H89   c1.381,0,2.5-1.297,2.5-3s-1.119-3-2.5-3h-7.34c0.003-5-1.586-8.935-4.297-12.236c2.535-7.278,3.793-22.362-0.863-24.639   c-4.76-2.327-14.926,7.558-19.352,13.854C54.851,34.601,52.46,34.333,50,34.333z M35.724,60.11c-2.754,0-4.986-2.232-4.986-4.986   c0-2.752,2.232-4.984,4.986-4.984c2.753,0,4.984,2.232,4.984,4.984C40.708,57.878,38.477,60.11,35.724,60.11z M59.291,55.124   c0-2.752,2.232-4.984,4.986-4.984c2.753,0,4.984,2.232,4.984,4.984c0,2.754-2.231,4.986-4.984,4.986   C61.523,60.11,59.291,57.878,59.291,55.124z"/></g><text x="0" y="115" fill="#000000" font-size="5px" font-weight="bold" font-family="'Helvetica Neue', Helvetica, Arial-Unicode, Arial, Sans-serif">Created by Quang Khuê</text><text x="0" y="120" fill="#000000" font-size="5px" font-weight="bold" font-family="'Helvetica Neue', Helvetica, Arial-Unicode, Arial, Sans-serif">from the Noun Project</text></svg>